<?xml version="1.0" standalone="no"?>
<!DOCTYPE svg PUBLIC "-//W3C//DTD SVG 20010904//EN"
 "http://www.w3.org/TR/2001/REC-SVG-20010904/DTD/svg10.dtd">
<svg version="1.0" xmlns="http://www.w3.org/2000/svg"
 width="427.000000pt" height="103.000000pt" viewBox="0 0 427.000000 103.000000"
 preserveAspectRatio="xMidYMid meet">
<metadata>
Created by potrace 1.14, written by Peter Selinger 2001-2017
</metadata>
<g transform="translate(0.000000,103.000000) scale(0.100000,-0.100000)"
fill="#000000" stroke="none">
<path d="M1235 943 c-177 -21 -385 -70 -589 -137 -141 -47 -378 -137 -373
-142 1 -2 81 24 177 57 192 66 420 128 575 155 142 26 547 27 655 2 134 -30
152 -39 180 -93 14 -27 36 -55 50 -64 l25 -16 -23 29 c-17 22 -19 31 -10 37
16 10 53 -10 111 -61 72 -63 68 -41 -5 32 -149 147 -337 210 -621 207 -67 -1
-135 -4 -152 -6z"/>
<path d="M3125 894 c-121 -27 -281 -83 -545 -189 -140 -56 -293 -116 -340
-131 -109 -37 -195 -39 -260 -6 -40 20 -42 21 -20 2 37 -30 97 -43 165 -37 66
7 160 36 395 122 223 82 400 142 515 172 86 24 120 27 240 27 122 0 147 -2
197 -22 66 -27 131 -87 150 -140 8 -22 13 -79 12 -137 0 -83 1 -92 8 -55 14
68 4 168 -22 228 -28 66 -93 124 -169 153 -75 28 -229 35 -326 13z"/>
<path d="M3891 658 c-108 -53 -149 -194 -91 -307 65 -129 256 -143 358 -27 74
84 67 222 -14 298 -65 60 -173 76 -253 36z m188 -66 c117 -71 121 -240 8 -307
-34 -19 -58 -25 -103 -25 -71 0 -116 21 -158 73 -25 31 -31 49 -34 101 -6 95
33 154 119 181 57 18 113 10 168 -23z"/>
</g>
</svg>
